<svg xmlns="http://www.w3.org/2000/svg" viewBox="0 0 256 256"><defs><style>.a{fill:#141414;}.b{fill:#0a0a0a;}</style></defs><title>bg</title><rect class="a" width="256" height="256"/><path class="b" d="M0,93.87l-9.66,9.65,2.62,6.3L-12,114.75-23.51,84.69l4.76-4.75L11.33,91.43l-5,5Zm-5.17-2.14-11.26-4.66,4.67,11.25Z"/><path class="b" d="M12.91,73.53l.11,5.7,5.26,5.25L13.5,89.27-7.29,68.48l4.78-4.78L7.2,73.41,6.7,54.49,12,49.14,12.7,67l20.64,2.41L27.72,75Z"/><path class="b" d="M45.87,49.06,49.79,53,34.08,68.69,31,65.57,31.41,50A11.9,11.9,0,0,0,31,46.16,5.21,5.21,0,0,0,29.74,44,3.24,3.24,0,0,0,27,42.91a5.57,5.57,0,0,0-3.15,1.81,8,8,0,0,0-1.94,3,6.62,6.62,0,0,0-.28,3.4l-5.77,1.25a11.7,11.7,0,0,1,.52-6.19,15.94,15.94,0,0,1,3.88-5.92,14.12,14.12,0,0,1,4.81-3.3,8.94,8.94,0,0,1,4.84-.57,7.83,7.83,0,0,1,4.22,2.29,10.21,10.21,0,0,1,2.46,3.89,17.17,17.17,0,0,1,.63,6.15L36.93,58Z"/><path class="b" d="M55.1,45.82a12.06,12.06,0,0,1-6.85-.54,18.94,18.94,0,0,1-6.93-4.63,19,19,0,0,1-4.63-6.92,12.08,12.08,0,0,1-.53-6.86A11.87,11.87,0,0,1,39.48,21a12.05,12.05,0,0,1,5.88-3.33,12.17,12.17,0,0,1,6.86.54,19,19,0,0,1,6.92,4.63,19.15,19.15,0,0,1,4.64,6.92,12.09,12.09,0,0,1,.53,6.86,12.62,12.62,0,0,1-9.21,9.21Zm3.17-12q-.56-2.72-4-6.14c-2.27-2.27-4.32-3.59-6.13-4a5,5,0,0,0-5.94,5.94q.56,2.72,4,6.13c2.27,2.28,4.32,3.6,6.13,4a5,5,0,0,0,5.94-5.94Z"/><path class="b" d="M128,93.87l-9.66,9.65,2.62,6.3L116,114.75,104.49,84.69l4.76-4.75,30.08,11.49-5.05,5Zm-5.17-2.14-11.26-4.66,4.67,11.25Z"/><path class="b" d="M140.91,73.53l.11,5.7,5.26,5.25-4.78,4.79L120.71,68.48l4.78-4.78,9.71,9.71-.5-18.92L140,49.14,140.7,67l20.64,2.41L155.72,75Z"/><path class="b" d="M173.87,49.06,177.79,53,162.08,68.69,159,65.57,159.41,50a11.9,11.9,0,0,0-.38-3.82A5.21,5.21,0,0,0,157.74,44,3.24,3.24,0,0,0,155,42.91a5.57,5.57,0,0,0-3.15,1.81,8,8,0,0,0-1.94,3,6.62,6.62,0,0,0-.28,3.4l-5.77,1.25a11.7,11.7,0,0,1,.52-6.19,15.94,15.94,0,0,1,3.88-5.92,14.12,14.12,0,0,1,4.81-3.3,8.94,8.94,0,0,1,4.84-.57,7.83,7.83,0,0,1,4.22,2.29,10.21,10.21,0,0,1,2.46,3.89,17.17,17.17,0,0,1,.63,6.15l-.27,9.3Z"/><path class="b" d="M183.1,45.82a12.06,12.06,0,0,1-6.85-.54,18.94,18.94,0,0,1-6.93-4.63,19,19,0,0,1-4.63-6.92,12.08,12.08,0,0,1-.53-6.86A11.87,11.87,0,0,1,167.48,21a12.05,12.05,0,0,1,5.88-3.33,12.17,12.17,0,0,1,6.86.54,19,19,0,0,1,6.92,4.63,19.15,19.15,0,0,1,4.64,6.92,12.09,12.09,0,0,1,.53,6.86,12.62,12.62,0,0,1-9.21,9.21Zm3.17-12q-.56-2.72-4-6.14c-2.27-2.27-4.32-3.59-6.13-4a5,5,0,0,0-5.94,5.94q.56,2.72,4,6.13c2.27,2.28,4.32,3.6,6.13,4a5,5,0,0,0,5.94-5.94Z"/><path class="b" d="M256,93.87l-9.66,9.65,2.62,6.3L244,114.75,232.49,84.69l4.76-4.75,30.08,11.49-5.05,5Zm-5.17-2.14-11.26-4.66,4.67,11.25Z"/><path class="b" d="M268.91,73.53l.11,5.7,5.26,5.25-4.78,4.79L248.71,68.48l4.78-4.78,9.71,9.71-.5-18.92L268,49.14,268.7,67l20.64,2.41L283.72,75Z"/><path class="b" d="M140,221.87l-9.66,9.65,2.62,6.3L128,242.75l-11.53-30.06,4.76-4.75,30.08,11.49-5.05,5Zm-5.17-2.14-11.26-4.66,4.67,11.25Z"/><path class="b" d="M152.91,201.53l.11,5.7,5.26,5.25-4.78,4.79-20.79-20.79,4.78-4.78,9.71,9.71-.5-18.92,5.34-5.35L152.7,195l20.64,2.41L167.72,203Z"/><path class="b" d="M185.87,177.06l3.92,3.92-15.71,15.71L171,193.57l.45-15.59a11.9,11.9,0,0,0-.38-3.82,5.21,5.21,0,0,0-1.29-2.18,3.24,3.24,0,0,0-2.76-1.07,5.57,5.57,0,0,0-3.15,1.81,8,8,0,0,0-1.94,3,6.62,6.62,0,0,0-.28,3.4l-5.77,1.25a11.7,11.7,0,0,1,.52-6.19,15.94,15.94,0,0,1,3.88-5.92,14.12,14.12,0,0,1,4.81-3.3,8.94,8.94,0,0,1,4.84-.57,7.83,7.83,0,0,1,4.22,2.29,10.21,10.21,0,0,1,2.46,3.89,17.17,17.17,0,0,1,.63,6.15l-.27,9.3Z"/><path class="b" d="M195.1,173.82a12.14,12.14,0,0,1-6.85-.53,21.44,21.44,0,0,1-11.56-11.56,12.08,12.08,0,0,1-.53-6.86,11.87,11.87,0,0,1,3.32-5.88,12.05,12.05,0,0,1,5.88-3.33,12.17,12.17,0,0,1,6.86.54,19,19,0,0,1,6.92,4.63,19.15,19.15,0,0,1,4.64,6.92,12.09,12.09,0,0,1,.53,6.86,11.87,11.87,0,0,1-3.32,5.88A12,12,0,0,1,195.1,173.82Zm3.17-12q-.56-2.72-4-6.14c-2.27-2.27-4.32-3.59-6.13-4a5,5,0,0,0-5.94,5.94q.56,2.72,4,6.13c2.27,2.28,4.32,3.6,6.13,4a5,5,0,0,0,5.94-5.94Z"/><path class="b" d="M268,221.87l-9.66,9.65,2.62,6.3L256,242.75l-11.53-30.06,4.76-4.75,30.08,11.49-5.05,5Zm-5.17-2.14-11.26-4.66,4.67,11.25Z"/><path class="b" d="M12,221.87l-9.66,9.65L5,237.82,0,242.75l-11.53-30.06,4.76-4.75,30.08,11.49-5,5Zm-5.17-2.14-11.26-4.66L.23,226.32Z"/><path class="b" d="M24.91,201.53l.11,5.7,5.26,5.25-4.78,4.79L4.71,196.48l4.78-4.78,9.71,9.71-.5-18.92L24,177.14,24.7,195l20.64,2.41L39.72,203Z"/><path class="b" d="M57.87,177.06,61.79,181,46.08,196.69,43,193.57,43.41,178a11.9,11.9,0,0,0-.38-3.82A5.21,5.21,0,0,0,41.74,172,3.24,3.24,0,0,0,39,170.91a5.57,5.57,0,0,0-3.15,1.81,8,8,0,0,0-1.94,3,6.62,6.62,0,0,0-.28,3.4l-5.77,1.25a11.7,11.7,0,0,1,.52-6.19,15.94,15.94,0,0,1,3.88-5.92,14.12,14.12,0,0,1,4.81-3.3,8.94,8.94,0,0,1,4.84-.57,7.83,7.83,0,0,1,4.22,2.29,10.21,10.21,0,0,1,2.46,3.89,17.17,17.17,0,0,1,.63,6.15l-.27,9.3Z"/><path class="b" d="M67.1,173.82a12.14,12.14,0,0,1-6.85-.53,19.1,19.1,0,0,1-6.93-4.64,19,19,0,0,1-4.63-6.92,12.08,12.08,0,0,1-.53-6.86A11.87,11.87,0,0,1,51.48,149a12.05,12.05,0,0,1,5.88-3.33,12.17,12.17,0,0,1,6.86.54,19,19,0,0,1,6.92,4.63,19.15,19.15,0,0,1,4.64,6.92,12.09,12.09,0,0,1,.53,6.86A11.87,11.87,0,0,1,73,170.49,12,12,0,0,1,67.1,173.82Zm3.17-12q-.55-2.72-4-6.14c-2.27-2.27-4.32-3.59-6.13-4a5,5,0,0,0-5.94,5.94q.56,2.72,4,6.13c2.27,2.28,4.32,3.6,6.13,4a5,5,0,0,0,5.94-5.94Z"/></svg>